<?xml version="1.0" encoding="utf-8"?>
<!-- Generator: Adobe Illustrator 20.0.0, SVG Export Plug-In . SVG Version: 6.00 Build 0)  -->
<svg version="1.1" id="Layer_1" xmlns="http://www.w3.org/2000/svg" xmlns:xlink="http://www.w3.org/1999/xlink" x="0px" y="0px"
	 viewBox="0 0 64 64" style="enable-background:new 0 0 64 64;" xml:space="preserve">
<style type="text/css">
	.st0{fill:#FFFFFF;}
</style>
<g>
	<circle class="st0" cx="32.3" cy="32" r="28.8"/>
	<path d="M31.9,0c9,0,16.6,3.1,22.9,9.4c3,3,5.3,6.4,6.9,10.3c1.6,3.9,2.3,8,2.3,12.3c0,4.4-0.8,8.5-2.3,12.3
		c-1.5,3.8-3.8,7.2-6.8,10.1c-3.1,3.1-6.7,5.4-10.6,7.1c-4,1.6-8.1,2.5-12.3,2.5s-8.3-0.8-12.1-2.4c-3.9-1.6-7.3-4-10.4-7
		S4,48,2.4,44.2S0,36.3,0,32c0-4.2,0.8-8.3,2.4-12.2s4-7.4,7.1-10.5C15.6,3.1,23.1,0,31.9,0z M32.1,5.8c-7.3,0-13.5,2.6-18.5,7.7
		C11.1,16,9.2,18.8,7.8,22c-1.4,3.2-2,6.5-2,10c0,3.4,0.7,6.7,2,9.9c1.4,3.2,3.3,6,5.8,8.5c2.5,2.5,5.4,4.4,8.5,5.7
		c3.2,1.3,6.5,2,9.9,2c3.4,0,6.8-0.7,10-2c3.2-1.3,6.1-3.3,8.7-5.8c5-4.9,7.5-11,7.5-18.3c0-3.5-0.6-6.9-1.9-10.1
		c-1.3-3.2-3.2-6-5.7-8.5C45.5,8.3,39.3,5.8,32.1,5.8z M31.7,26.7l-4.3,2.2c-0.5-1-1-1.6-1.7-2c-0.7-0.4-1.3-0.6-1.9-0.6
		c-2.9,0-4.3,1.9-4.3,5.7c0,1.7,0.4,3.1,1.1,4.1c0.7,1,1.8,1.5,3.2,1.5c1.9,0,3.2-0.9,3.9-2.7l3.9,2c-0.8,1.6-2,2.8-3.5,3.7
		c-1.5,0.9-3.1,1.3-4.9,1.3c-2.9,0-5.2-0.9-6.9-2.6c-1.8-1.8-2.6-4.2-2.6-7.3c0-3,0.9-5.5,2.7-7.3c1.8-1.8,4-2.7,6.7-2.7
		C27.1,22.1,29.9,23.6,31.7,26.7z M50.1,26.7l-4.2,2.2c-0.5-1-1-1.6-1.7-2c-0.7-0.4-1.3-0.6-1.9-0.6c-2.9,0-4.3,1.9-4.3,5.7
		c0,1.7,0.4,3.1,1.1,4.1c0.7,1,1.8,1.5,3.2,1.5c1.9,0,3.2-0.9,3.9-2.7l4,2c-0.9,1.6-2.1,2.8-3.5,3.7c-1.5,0.9-3.1,1.3-4.9,1.3
		c-2.9,0-5.2-0.9-6.9-2.6c-1.7-1.8-2.6-4.2-2.6-7.3c0-3,0.9-5.5,2.7-7.3c1.8-1.8,4-2.7,6.7-2.7C45.6,22.1,48.4,23.6,50.1,26.7z"/>
</g>
</svg>
